<svg xmlns="http://www.w3.org/2000/svg" xmlns:xlink="http://www.w3.org/1999/xlink" style="vertical-align:-.755ex" width="3.427ex" height="2.634ex" viewBox="0 -809.3 1475.3 1134.2"><defs><path id="a" stroke-width="1" d="M39-1Q29 9 29 12q0 11 31 65t159 260l191 311h-46q-103 0-154-20-42-16-68-40t-33-43-12-36-9-19q-3-1-8-1-8 0-19 14l9 85q2 19 5 40t4 34 2 13q3 2 7 6 2 2 253 2h251q12-10 12-17 0-4-192-318L221 37q0-2 80-2 105 0 145 13 58 20 97 63t54 101q5 27 20 27 7 0 12-5t6-11q0-8-14-110T604 8l-7-7q-2-2-280-2H39zm109 638l18 11h-54v-16q-1-3-2-10t-2-10q0-4 2-4t6 4 13 11 19 14zm404 9q0 2-48 2-52 0-54-5-2-4-184-300T77 37q0-2 51-2h51l187 304 186 307zm20-611q9 54 9 62l-20-20q-19-18-35-29l-18-11 31-2h33z"/><path id="b" stroke-width="1" d="M21 287q1 6 3 16t12 38 20 47 33 37 46 17q36 0 60-18t30-34 6-21q0-2 1-2l11 11q61 64 139 64 54 0 87-27t34-79-38-157-38-127q0-26 17-26 6 0 9 1 29 5 52 38t35 80q2 8 20 8 20 0 20-8 0-1-4-15-8-29-22-57t-46-56-69-27q-47 0-68 27t-21 56q0 19 36 120t37 152q0 59-44 59h-5q-86 0-145-101l-7-12-33-134Q156 26 151 16q-13-27-43-27-13 0-21 6T76 7t-2 10q0 13 38 163t40 163q1 5 1 23 0 39-24 39-38 0-63-100-6-20-6-21-2-6-19-6H27q-6 6-6 9z"/><path id="c" stroke-width="1" d="M109 429q-27 0-43 18t-16 44q0 71 53 123t132 52q91 0 152-56t62-145q0-43-20-82t-48-68-80-74q-36-31-100-92l-59-56 76-1q157 0 167 5 7 2 24 89v3h40v-3q-1-3-13-91T421 3V0H50v31q0 7 6 15t30 35q29 32 50 56 9 10 34 37t34 37 29 33 28 34 23 30 21 32 15 29 13 32 7 30 3 33q0 63-34 109t-97 46q-33 0-58-17t-35-33-10-19q0-1 5-1 18 0 37-14t19-46q0-25-16-42t-45-18z"/><path id="d" stroke-width="1" d="M42 313q0 163 81 258t180 95q69 0 99-36t30-80q0-25-14-40t-39-15q-23 0-38 14t-15 39q0 44 47 53-22 22-62 25-71 0-117-60-47-66-47-202l1-4q5 6 8 13 41 60 107 60h4q46 0 81-19 24-14 48-40t39-57q21-49 21-107v-18q0-23-5-43-11-59-64-115T253-22q-28 0-54 8t-56 30-51 59-36 97-14 141zm215 84q-30 0-52-17t-34-45-17-57-6-62q0-83 12-119t38-58q24-18 53-18 51 0 78 38 13 18 18 45t5 105q0 80-5 107t-18 45q-27 36-72 36z"/></defs><g fill="currentColor" stroke="currentColor" stroke-width="0" transform="scale(1 -1)"><use xlink:href="#a"/><use x="943" y="581" transform="scale(.707)" xlink:href="#b"/><g transform="matrix(.707 0 0 .707 667 -250)"><use xlink:href="#c"/><use x="500" xlink:href="#d"/></g></g></svg>