<svg xmlns="http://www.w3.org/2000/svg" xmlns:xlink="http://www.w3.org/1999/xlink" style="vertical-align:-.505ex" width="3.225ex" height="2.259ex" viewBox="0 -755.5 1388.7 972.7"><defs><path id="a" stroke-width="1" d="M39-1Q29 9 29 12q0 11 31 65t159 260l191 311h-46q-103 0-154-20-42-16-68-40t-33-43-12-36-9-19q-3-1-8-1-8 0-19 14l9 85q2 19 5 40t4 34 2 13q3 2 7 6 2 2 253 2h251q12-10 12-17 0-4-192-318L221 37q0-2 80-2 105 0 145 13 58 20 97 63t54 101q5 27 20 27 7 0 12-5t6-11q0-8-14-110T604 8l-7-7q-2-2-280-2H39zm109 638l18 11h-54v-16q-1-3-2-10t-2-10q0-4 2-4t6 4 13 11 19 14zm404 9q0 2-48 2-52 0-54-5-2-4-184-300T77 37q0-2 51-2h51l187 304 186 307zm20-611q9 54 9 62l-20-20q-19-18-35-29l-18-11 31-2h33z"/><path id="b" stroke-width="1" d="M21 287q1 6 3 16t12 38 20 47 32 37 44 17 43-7 30-18 16-22 8-19l2-7q0-2 1-2l11 11q60 64 141 64 17 0 31-2t26-7 19-10 15-12 10-13 8-13 4-12 3-9 2-7l8 10q63 75 149 75 54 0 87-27t34-79q0-51-38-158T704 50q1-14 5-19t15-5q28 0 52 30t39 82q3 11 6 13t16 2q20 0 20-8 0-1-4-15-8-29-22-57t-46-56-69-27q-47 0-68 27t-21 56q0 19 36 120t37 152q0 59-44 59h-5q-86 0-145-101l-7-12-33-134Q433 26 428 16q-13-27-43-27-13 0-21 7T353 8t-3 10q0 11 34 143l36 146q3 15 3 38 0 59-44 59h-5q-86 0-145-101l-7-12-33-134Q156 26 151 16q-13-27-43-27-13 0-21 6T76 7t-2 10q0 13 38 164 39 154 39 161 3 15 3 27 0 36-25 36-22 0-37-28t-23-61-12-36q-2-2-16-2H27q-6 6-6 9z"/></defs><g fill="currentColor" stroke="currentColor" stroke-width="0" transform="scale(1 -1)"><use xlink:href="#a"/><use x="943" y="-213" transform="scale(.707)" xlink:href="#b"/></g></svg>